<svg xmlns="http://www.w3.org/2000/svg" viewBox="0 0 920 690">
  <rect width="920" height="690" fill="#080b12"/>
  <path d="M112 163c132-104 405-104 593-20 117 52 158 165 98 264-69 113-263 156-452 129-173-25-287-107-288-211-1-63 15-116 49-162Z" fill="#303845" stroke="#8c96a8" stroke-width="5"/>
  <g fill="#c6ccd5" opacity=".9">
    <path d="M390 180c97-25 210 10 265 92 45 67 33 162-34 215-82 65-214 45-282-38-63-77-48-215 51-269Z"/>
    <circle cx="266" cy="278" r="34"/><circle cx="311" cy="416" r="27"/><circle cx="702" cy="366" r="31"/>
  </g>
  <g fill="none" stroke="#f97316" stroke-width="13" stroke-linecap="round">
    <path d="M432 212c60 40 107 93 143 160"/><path d="M380 344c78-13 151 15 216 79"/>
  </g>
  <g fill="#dbe4ef" font-family="Arial,sans-serif">
    <text x="55" y="72" font-size="30" font-weight="700">SCHEMATIC INFILTRATIVE HCC</text>
    <text x="55" y="628" font-size="25">Permeative growth · heterogeneous enhancement · satellites</text>
  </g>
</svg>
